# xmcd
#
# Track frame offsets:
#	150
#	18087
#	32051
#	48671
#	106967
#	133569
#	152485
#	177186
#	205727
#
# Disc length: 2913 seconds
# Revision: 1
# Processed by: cddbd v1.5.2PL0 Copyright (c) Steve Scherf et al.
# Submitted via: dBpowerAMP V12.0
#
DISCID=6a0b5f09
DTITLE=Duke Ellington - The Duke - In a Mellow Tone CD 1
DYEAR=1999
DGENRE=Jazz
TTITLE0=Caravan
TTITLE1=In A Mellow Tone
TTITLE2=Solid Old Man
TTITLE3=Spiritual (Come Sunday) - Work Song
TTITLE4=The Blues
TTITLE5=Rugged Romeo
TTITLE6=Sono
TTITLE7=Air-Conditioned Jungle
TTITLE8=Pitter Panther Patter
EXTD=
EXTT0=
EXTT1=
EXTT2=
EXTT3=
EXTT4=
EXTT5=
EXTT6=
EXTT7=
EXTT8=
PLAYORDER=
